 
http://bayimg.com/DaJEOaAEe



[url]http://www.imdb.com/title/tt1428538/[/url]


[b] Plot:In this spin on the fairy tale, Hansel & Gretel are now bounty hunters who track and kill witches all over the world. As the fabled Blood Moon approaches, the siblings encounter a new form of evil that might hold a secret to their past. 



Director:
 Tommy Wirkola

Writer:
 Tommy Wirkola

Stars:
 Jeremy Renner, Gemma Arterton, Peter Stormare

Genres:
 Action | Fantasy | Horror 

Country:
Germany|USA

Language:
English [/b]




Format                                   : AVI
Format/Info                              : Audio Video Interleave
File size                                : 910 MiB
Duration                                 : 1h 20mn
Overall bit rate                         : 1 586 Kbps
Writing library                          : VirtualDub build 32842/release

Video
ID                                       : 0
Format                                   : MPEG-4 Visual
Format profile                           : Advanced Simple@L5
Format settings, BVOP                    : 2
Format settings, QPel                    : No
Format settings, GMC                     : No warppoints
Format settings, Matrix                  : Default (H.263)
Muxing mode                              : Packed bitstream
Codec ID                                 : XVID
Codec ID/Hint                            : XviD
Duration                                 : 1h 20mn
Bit rate                                 : 1 446 Kbps
Width                                    : 720 pixels
Height                                   : 340 pixels
Display aspect ratio                     : 2.118
Frame rate                               : 29.970 fps
Color space                              : YUV
Chroma subsampling                       : 4:2:0
Bit depth                                : 8 bits
Scan type                                : Progressive
Compression mode                         : Lossy
Bits/(Pixel*Frame)                       : 0.197
Stream size                              : 830 MiB (91%)
Writing library                          : XviD 64

Audio
ID                                       : 1
Format                                   : MPEG Audio
Format version                           : Version 1
Format profile                           : Layer 3
Mode                                     : Joint stereo
Mode extension                           : MS Stereo
Codec ID                                 : 55
Codec ID/Hint                            : MP3
Duration                                 : 1h 20mn
Bit rate mode                            : Constant
Bit rate                                 : 128 Kbps
Channel(s)                               : 2 channels
Sampling rate                            : 44.1 KHz
Compression mode                         : Lossy
Stream size                              : 73.4 MiB (8%)
Alignment                                : Split accross interleaves
Interleave, duration                     : 33 ms (1.00 video frame)
Writing library                          : LAME3.99r
Encoding settings                        : -m j -V 4 -q 2 -lowpass 17 -b 128



 
http://bayimg.com/eaJeHAAEE 
http://bayimg.com/eAjEiAaEe 
http://bayimg.com/EaJEjaaEE